<!-- @license lucide-static v1.8.0 - ISC -->
<svg xmlns="http://www.w3.org/2000/svg" style="display: none">
  <symbol id="sun" viewBox="0 0 24 24">
    <circle cx="12" cy="12" r="4" />
    <path d="M12 2v2" />
    <path d="M12 20v2" />
    <path d="m4.93 4.93 1.41 1.41" />
    <path d="m17.66 17.66 1.41 1.41" />
    <path d="M2 12h2" />
    <path d="M20 12h2" />
    <path d="m6.34 17.66-1.41 1.41" />
    <path d="m19.07 4.93-1.41 1.41" />
  </symbol>
  <symbol id="moon" viewBox="0 0 24 24">
    <path d="M20.985 12.486a9 9 0 1 1-9.473-9.472c.405-.022.617.46.402.803a6 6 0 0 0 8.268 8.268c.344-.215.825-.004.803.401" />
  </symbol>
  <symbol id="settings" viewBox="0 0 24 24">
    <path d="M9.671 4.136a2.34 2.34 0 0 1 4.659 0 2.34 2.34 0 0 0 3.319 1.915 2.34 2.34 0 0 1 2.33 4.033 2.34 2.34 0 0 0 0 3.831 2.34 2.34 0 0 1-2.33 4.033 2.34 2.34 0 0 0-3.319 1.915 2.34 2.34 0 0 1-4.659 0 2.34 2.34 0 0 0-3.32-1.915 2.34 2.34 0 0 1-2.33-4.033 2.34 2.34 0 0 0 0-3.831A2.34 2.34 0 0 1 6.35 6.051a2.34 2.34 0 0 0 3.319-1.915" />
    <circle cx="12" cy="12" r="3" />
  </symbol>
  <symbol id="pickaxe" viewBox="0 0 24 24">
    <path d="m14 13-8.381 8.38a1 1 0 0 1-3.001-3L11 9.999" />
    <path d="M15.973 4.027A13 13 0 0 0 5.902 2.373c-1.398.342-1.092 2.158.277 2.601a19.9 19.9 0 0 1 5.822 3.024" />
    <path d="M16.001 11.999a19.9 19.9 0 0 1 3.024 5.824c.444 1.369 2.26 1.676 2.603.278A13 13 0 0 0 20 8.069" />
    <path d="M18.352 3.352a1.205 1.205 0 0 0-1.704 0l-5.296 5.296a1.205 1.205 0 0 0 0 1.704l2.296 2.296a1.205 1.205 0 0 0 1.704 0l5.296-5.296a1.205 1.205 0 0 0 0-1.704z" />
  </symbol>
  <symbol id="play" viewBox="0 0 24 24">
    <path d="M5 5a2 2 0 0 1 3.008-1.728l11.997 6.998a2 2 0 0 1 .003 3.458l-12 7A2 2 0 0 1 5 19z" />
  </symbol>
  <symbol id="check" viewBox="0 0 24 24">
    <path d="M20 6 9 17l-5-5" />
  </symbol>
  <symbol id="x" viewBox="0 0 24 24">
    <path d="M18 6 6 18" />
    <path d="m6 6 12 12" />
  </symbol>
  <symbol id="captions" viewBox="0 0 24 24">
    <rect width="18" height="14" x="3" y="5" rx="2" ry="2" />
    <path d="M7 15h4M15 15h2M7 11h2M13 11h4" />
  </symbol>
  <symbol id="file-video" viewBox="0 0 24 24">
    <path d="M6 22a2 2 0 0 1-2-2V4a2 2 0 0 1 2-2h8a2.4 2.4 0 0 1 1.704.706l3.588 3.588A2.4 2.4 0 0 1 20 8v12a2 2 0 0 1-2 2z" />
    <path d="M14 2v5a1 1 0 0 0 1 1h5" />
    <path d="M15.033 13.44a.647.647 0 0 1 0 1.12l-4.065 2.352a.645.645 0 0 1-.968-.56v-4.704a.645.645 0 0 1 .967-.56z" />
  </symbol>
  <symbol id="audio-lines" viewBox="0 0 24 24">
    <path d="M2 10v3" />
    <path d="M6 6v11" />
    <path d="M10 3v18" />
    <path d="M14 8v7" />
    <path d="M18 5v13" />
    <path d="M22 10v3" />
  </symbol>
  <symbol id="image" viewBox="0 0 24 24">
    <rect width="18" height="18" x="3" y="3" rx="2" ry="2" />
    <circle cx="9" cy="9" r="2" />
    <path d="m21 15-3.086-3.086a2 2 0 0 0-2.828 0L6 21" />
  </symbol>
  <symbol id="type" viewBox="0 0 24 24">
    <path d="M12 4v16" />
    <path d="M4 7V5a1 1 0 0 1 1-1h14a1 1 0 0 1 1 1v2" />
    <path d="M9 20h6" />
  </symbol>
  <symbol id="database" viewBox="0 0 24 24">
    <ellipse cx="12" cy="5" rx="9" ry="3" />
    <path d="M3 5V19A9 3 0 0 0 21 19V5" />
    <path d="M3 12A9 3 0 0 0 21 12" />
  </symbol>
  <symbol id="list-checks" viewBox="0 0 24 24">
    <path d="M13 5h8" />
    <path d="M13 12h8" />
    <path d="M13 19h8" />
    <path d="m3 17 2 2 4-4" />
    <path d="m3 7 2 2 4-4" />
  </symbol>
</svg>
